<svg width="299" height="71" viewBox="0 0 299 71" fill="none" xmlns="http://www.w3.org/2000/svg">
<path d="M0.5 35.34C0.5 15.25 16.04 0 36.63 0C54.55 0 68.61 11.58 71.87 27.82H58.81C55.44 20.4 47.03 15.25 36.63 15.25C23.26 15.25 13.07 23.86 13.07 35.35C13.07 46.84 23.27 55.45 36.63 55.45C47.02 55.45 55.44 50.3 58.81 42.88H71.88C68.61 59.1 54.55 70.69 36.63 70.69C16.04 70.69 0.5 55.44 0.5 35.34Z" fill="#212125"/>
<path d="M123.06 57.4199H89.4L84.65 69.4999H70.69L96.73 1.18994H114.75L140.68 69.4999H127.81L123.06 57.4199ZM117.22 42.4699L107.52 17.7199H104.85L95.15 42.4699H117.22Z" fill="#212125"/>
<path d="M148 1.18994H161.76L193.24 44.4499H194.92V1.18994H207.2V69.4999H193.34L161.96 26.2399H160.18V69.4999H148V1.18994Z" fill="#212125"/>
<path d="M220.17 1.18994H232.35V69.4999H220.17V1.18994Z" fill="#212125"/>
<path d="M241.75 48.61H254.32C254.32 53.07 261.25 56.53 270.65 56.53C278.87 56.53 285.4 53.86 285.4 49.9C285.4 44.85 275.1 43.07 266.29 41.68C253.82 39.8 242.93 33.36 242.93 21.09C242.93 8.42 254.61 0 269.66 0C285.3 0 296.79 9.21 296.79 21.19H284.22C284.22 17.23 277.98 14.16 269.27 14.16C261.45 14.16 255.61 16.64 255.61 20.3C255.61 25.25 267.79 27.33 273.43 28.12C286.7 30.1 298.08 35.94 298.08 48.61C298.08 61.97 285.7 70.69 270.16 70.69C253.83 70.69 241.75 61.18 241.75 48.61Z" fill="#212125"/>
</svg>
