<svg width="300" height="72" viewBox="0 0 300 72" fill="none" xmlns="http://www.w3.org/2000/svg">
<path d="M1.5 35.84C1.5 15.75 17.04 0.5 37.63 0.5C55.55 0.5 69.61 12.08 72.87 28.32H59.81C56.44 20.9 48.03 15.75 37.63 15.75C24.26 15.75 14.07 24.36 14.07 35.85C14.07 47.34 24.27 55.95 37.63 55.95C48.02 55.95 56.44 50.8 59.81 43.38H72.88C69.61 59.6 55.55 71.19 37.63 71.19C17.04 71.19 1.5 55.94 1.5 35.84Z" fill="#DBD8CD"/>
<path d="M124.06 57.9199H90.4L85.65 69.9999H71.69L97.73 1.68994H115.75L141.68 69.9999H128.81L124.06 57.9199ZM118.22 42.9699L108.52 18.2199H105.85L96.15 42.9699H118.22Z" fill="#DBD8CD"/>
<path d="M149 1.68994H162.76L194.24 44.9499H195.92V1.68994H208.2V69.9999H194.34L162.96 26.7399H161.18V69.9999H149V1.68994Z" fill="#DBD8CD"/>
<path d="M221.17 1.68994H233.35V69.9999H221.17V1.68994Z" fill="#DBD8CD"/>
<path d="M242.75 49.11H255.32C255.32 53.57 262.25 57.03 271.65 57.03C279.87 57.03 286.4 54.36 286.4 50.4C286.4 45.35 276.1 43.57 267.29 42.18C254.82 40.3 243.93 33.86 243.93 21.59C243.93 8.92 255.61 0.5 270.66 0.5C286.3 0.5 297.79 9.71 297.79 21.69H285.22C285.22 17.73 278.98 14.66 270.27 14.66C262.45 14.66 256.61 17.14 256.61 20.8C256.61 25.75 268.79 27.83 274.43 28.62C287.7 30.6 299.08 36.44 299.08 49.11C299.08 62.47 286.7 71.19 271.16 71.19C254.83 71.19 242.75 61.68 242.75 49.11Z" fill="#DBD8CD"/>
</svg>
