<svg width="35" height="25" viewBox="0 0 35 25" fill="none" xmlns="http://www.w3.org/2000/svg">
<path d="M17.7693 13.6273C17.3239 13.6273 16.8784 13.4463 16.4329 13.0565L2.52571 0.805929C3.29137 0.304769 4.15448 0.0820312 5.3517 0.0820312H30.2009C31.3981 0.0820312 32.2612 0.304769 33.013 0.805929L19.1058 13.0565C18.6742 13.4463 18.2287 13.6273 17.7693 13.6273ZM1.34242 21.8268C1.11968 21.2978 0.980469 20.6574 0.980469 19.7665V4.39758C0.980469 3.43702 1.16144 2.72704 1.31458 2.4347L11.644 11.5391L1.34242 21.8268ZM34.2102 21.8268L23.9085 11.5391L34.238 2.4347C34.3911 2.72704 34.5721 3.43702 34.5721 4.39758V19.7665C34.5721 20.6574 34.419 21.2978 34.2102 21.8268ZM4.93407 24.082C3.9039 24.082 3.12432 23.8315 2.59532 23.4695L13.1893 12.8755L15.2218 14.6853C16.0292 15.3953 16.9062 15.7572 17.7693 15.7572C18.6464 15.7572 19.5234 15.3953 20.3308 14.6853L22.3633 12.8755L32.9573 23.4695C32.4283 23.8315 31.6348 24.082 30.6185 24.082H4.93407Z" fill="#DBD8CD"/>
</svg>
